<svg width="193" height="38" viewBox="0 0 193 38" fill="none" xmlns="http://www.w3.org/2000/svg">
<path d="M55.2545 27.8568C54.3166 27.8568 53.8477 27.1893 53.8477 25.8545L53.8063 11.9205C53.8063 10.6402 54.2752 10 55.2131 10C56.1786 10 56.6613 10.6538 56.6613 11.9614L56.7027 25.8545C56.7027 27.1893 56.2199 27.8568 55.2545 27.8568ZM64.048 23.7706C64.048 25.4323 64.8342 26.2632 66.4065 26.2632H72.3234C73.3717 26.2632 73.8957 26.522 73.8957 27.0395C73.8957 27.5299 73.3854 27.7751 72.3648 27.7751H64.4618C62.255 27.7751 61.1516 26.808 61.1516 24.8738V12.084C61.1516 10.7491 61.6344 10.0817 62.5998 10.0817C63.5929 10.0817 64.0894 10.79 64.0894 12.2066L64.048 23.7706ZM78.2058 27.8568C77.2678 27.8568 76.799 27.1893 76.799 25.8545L76.7576 11.9205C76.7576 10.6402 77.2264 10 78.1644 10C79.1298 10 79.6126 10.6538 79.6126 11.9614L79.654 25.8545C79.654 27.1893 79.1711 27.8568 78.2058 27.8568ZM92.2955 11.8388H89.4819C87.8268 11.8388 86.9993 12.6969 86.9993 14.4131V15.9659C86.9993 17.6004 87.813 18.4176 89.4405 18.4176H92.3783C94.0058 18.4176 94.8195 17.4097 94.8195 15.3938V13.8819C94.8195 12.5198 93.9781 11.8388 92.2955 11.8388ZM94.8195 25.5685V21.9726C94.8195 20.6378 93.9781 19.9704 92.2955 19.9704H89.4819C87.8268 19.9704 86.9993 20.6378 86.9993 21.9726V25.6094C86.9993 27.0259 86.5166 27.7342 85.5511 27.7342C84.5856 27.7342 84.1029 27.0941 84.1029 25.8137V13.1873C84.1029 11.2259 85.1098 10.2452 87.1234 10.2452H94.2816C96.5712 10.2452 97.7159 11.2259 97.7159 13.1873V25.7728C97.7159 27.0804 97.2332 27.7342 96.2677 27.7342C95.3022 27.7342 94.8195 27.0123 94.8195 25.5685ZM116.272 26.2632H119.168C120.823 26.2632 121.651 25.4596 121.651 23.8523V14.1679C121.651 12.6152 120.81 11.8388 119.127 11.8388H116.313C114.658 11.8388 113.831 12.6152 113.831 14.1679V23.934C113.831 25.4868 114.644 26.2632 116.272 26.2632ZM124.547 24.9964C124.547 26.8489 123.43 27.7751 121.196 27.7751H114.286C112.051 27.7751 110.934 26.8489 110.934 24.9964V13.1055C110.934 11.1986 112.051 10.2452 114.286 10.2452H121.154C123.416 10.2452 124.547 11.1986 124.547 13.1055V24.9964ZM138.522 16.7423C139.101 16.1702 139.391 15.4483 139.391 14.5766V13.6776C139.335 13.0783 139.142 12.6288 138.811 12.3291C138.48 12.0023 137.997 11.8388 137.363 11.8388H133.97C132.37 11.8388 131.57 12.7514 131.57 14.5766V15.6798C131.57 17.505 132.357 18.4176 133.929 18.4176H135.129C136.039 18.4176 136.77 18.1588 137.322 17.6412L138.522 16.7423ZM140.797 27.9385C139.859 27.9385 139.391 27.3528 139.391 26.1814V23.2802C139.391 23.0622 139.308 22.8307 139.142 22.5856C138.977 22.3132 138.756 22.0407 138.48 21.7683L137.28 20.7876C136.591 20.27 135.97 20.0112 135.418 20.0112H133.929C132.357 20.0112 131.57 20.7876 131.57 22.3404V26.0589C131.57 27.3119 131.088 27.9385 130.122 27.9385C129.157 27.9385 128.674 27.2711 128.674 25.9363V13.2281C128.674 11.2395 129.736 10.2452 131.86 10.2452H138.729C141.101 10.2452 142.287 11.1714 142.287 13.0238V15.7207C142.149 16.5107 141.556 17.3416 140.508 18.2133C140.094 18.5402 139.887 18.8807 139.887 19.2349C139.887 19.5618 140.08 19.9023 140.466 20.2564C141.57 21.2916 142.177 22.1361 142.287 22.7899V26.0997C142.287 27.3256 141.79 27.9385 140.797 27.9385ZM149.186 23.7706C149.186 25.4323 149.972 26.2632 151.544 26.2632H157.461C158.509 26.2632 159.034 26.522 159.034 27.0395C159.034 27.5299 158.523 27.7751 157.503 27.7751H149.6C147.393 27.7751 146.29 26.808 146.29 24.8738V12.084C146.29 10.7491 146.772 10.0817 147.738 10.0817C148.731 10.0817 149.227 10.79 149.227 12.2066L149.186 23.7706ZM166.902 26.2632H169.798C171.453 26.2632 172.281 25.4596 172.281 23.8523V14.1679C172.281 12.6152 171.44 11.8388 169.757 11.8388H166.943C165.288 11.8388 164.461 12.6152 164.461 14.1679V23.934C164.461 25.4868 165.274 26.2632 166.902 26.2632ZM175.177 24.9964C175.177 26.8489 174.06 27.7751 171.826 27.7751H164.916C162.682 27.7751 161.564 26.8489 161.564 24.9964V13.1055C161.564 11.1986 162.682 10.2452 164.916 10.2452H171.784C174.046 10.2452 175.177 11.1986 175.177 13.1055V24.9964ZM186.09 27.7751H185.552C184.807 27.7751 184.2 27.4482 183.732 26.7944L179.842 22.3813C179.511 22.0271 179.276 21.6049 179.139 21.1145C179.001 20.5969 178.932 19.9704 178.932 19.2349V12.1248C178.932 10.7355 179.414 10.0409 180.38 10.0409C181.373 10.0409 181.869 10.7355 181.869 12.1248L181.828 19.6435C181.828 20.488 182.297 21.4142 183.235 22.4221L185.345 24.833C185.565 24.9692 185.731 25.0373 185.842 25.0373C186.062 25.0373 186.269 24.9284 186.463 24.7104L188.573 22.463C189.041 21.9726 189.413 21.4823 189.69 20.9919C189.965 20.5016 190.104 20.0521 190.104 19.6435V12.1248C190.104 10.7355 190.572 10.0409 191.51 10.0409C192.504 10.0409 193 10.7219 193 12.084L192.959 19.2349C192.959 20.6242 192.599 21.673 191.883 22.3813L188.035 26.7535C187.704 27.1349 187.373 27.4073 187.042 27.5708C186.738 27.707 186.421 27.7751 186.09 27.7751Z" fill="url(#paint0_linear_30_225)"/>
<path d="M14.1741 2.1702C15.7637 1.24421 18.0793 0.466305 20.0533 0.194954C21.9588 -0.066815 22.376 -0.065944 24.2486 0.203447C27.1917 0.627025 30.0449 1.84288 32.2502 3.61254L33.4094 4.54311L35.4099 3.21422C36.5101 2.48336 37.4498 1.92454 37.4981 1.97224C37.5463 2.01993 37.4883 2.39494 37.3693 2.80546C36.9529 4.23952 37.0556 4.53461 37.9718 4.53461H38.7909L37.6338 5.6921C36.2217 7.10483 35.9989 7.94545 36.6851 9.27389C37.8437 11.5177 38.4073 15.128 38.0271 17.8718C37.2622 23.3942 35.0927 26.2577 27.7015 31.4999L18.6948 38C18.5634 38 0.140228 13.1288 0.000694275 12.7692C-0.10247 12.5038 12.0624 3.40021 14.1741 2.1702Z" fill="url(#paint1_linear_30_225)"/>
<circle cx="4.43333" cy="4.43333" r="4.43333" transform="matrix(-1 0 0 1 29.4417 4.09412)" fill="black"/>
<circle cx="1.9" cy="1.9" r="1.9" transform="matrix(-1 0 0 1 28.175 5.36078)" fill="white"/>
<defs>
<linearGradient id="paint0_linear_30_225" x1="123.17" y1="-1.59465" x2="123.17" y2="39.2676" gradientUnits="userSpaceOnUse">
<stop stop-color="#FFC700"/>
<stop offset="1" stop-color="#FF00D6"/>
</linearGradient>
<linearGradient id="paint1_linear_30_225" x1="27.8886" y1="1.9" x2="26.0121" y2="39.269" gradientUnits="userSpaceOnUse">
<stop stop-color="#FFC700"/>
<stop offset="1" stop-color="#FF00D6"/>
</linearGradient>
</defs>
</svg>
