<svg width="39" height="38" viewBox="0 0 39 38" fill="none" xmlns="http://www.w3.org/2000/svg">
<path d="M14.174 2.1702C15.7636 1.24421 18.0792 0.466305 20.0532 0.194954C21.9586 -0.066815 22.3759 -0.065944 24.2485 0.203447C27.1915 0.627025 30.0448 1.84288 32.2501 3.61254L33.4093 4.54311L35.4098 3.21422C36.5099 2.48336 37.4497 1.92454 37.4979 1.97224C37.5462 2.01993 37.4882 2.39494 37.3692 2.80546C36.9528 4.23952 37.0555 4.53461 37.9717 4.53461H38.7908L37.6337 5.6921C36.2216 7.10483 35.9988 7.94545 36.685 9.27389C37.8436 11.5177 38.4072 15.128 38.027 17.8718C37.2621 23.3942 35.0926 26.2577 27.7014 31.4999L18.6946 38C18.5633 38 0.140106 13.1288 0.000572205 12.7692C-0.102592 12.5038 12.0622 3.40021 14.174 2.1702Z" fill="url(#paint0_linear_3664_35)"/>
<circle cx="4.43333" cy="4.43333" r="4.43333" transform="matrix(-1 0 0 1 29.4417 4.09412)" fill="black"/>
<circle cx="1.9" cy="1.9" r="1.9" transform="matrix(-1 0 0 1 28.1748 5.36078)" fill="white"/>
<defs>
<linearGradient id="paint0_linear_3664_35" x1="27.8885" y1="1.9" x2="26.012" y2="39.269" gradientUnits="userSpaceOnUse">
<stop stop-color="#FFC700"/>
<stop offset="1" stop-color="#FF00D6"/>
</linearGradient>
</defs>
</svg>
