<svg width="26" height="26" viewBox="0 0 26 26" fill="none" xmlns="http://www.w3.org/2000/svg">
<g clip-path="url(#clip0_31_446)">
<path d="M4.875 11.375C3.98125 11.375 3.25 12.1063 3.25 13C3.25 13.8938 3.98125 14.625 4.875 14.625C5.76875 14.625 6.5 13.8938 6.5 13C6.5 12.1063 5.76875 11.375 4.875 11.375ZM21.125 11.375C20.2313 11.375 19.5 12.1063 19.5 13C19.5 13.8938 20.2313 14.625 21.125 14.625C22.0188 14.625 22.75 13.8938 22.75 13C22.75 12.1063 22.0188 11.375 21.125 11.375ZM13 11.375C12.1063 11.375 11.375 12.1063 11.375 13C11.375 13.8938 12.1063 14.625 13 14.625C13.8938 14.625 14.625 13.8938 14.625 13C14.625 12.1063 13.8938 11.375 13 11.375Z" fill="#AAAAAA"/>
</g>
<defs>
<clipPath id="clip0_31_446">
<rect width="26" height="26" fill="white"/>
</clipPath>
</defs>
</svg>
