<svg width="26" height="26" viewBox="0 0 26 26" fill="none" xmlns="http://www.w3.org/2000/svg">
<g clip-path="url(#clip0_31_424)">
<path d="M16.25 22.75V18.9583C16.25 17.875 16.3583 17.4417 15.7083 16.7917C18.7417 16.4667 21.6667 15.275 21.6667 10.2917C21.6653 8.99704 21.1603 7.75375 20.2583 6.825C20.6813 5.70046 20.6424 4.45426 20.15 3.35833C20.15 3.35833 18.9583 3.03333 16.3583 4.76667C14.1562 4.19314 11.8438 4.19314 9.64167 4.76667C7.04167 3.03333 5.85 3.35833 5.85 3.35833C5.3576 4.45426 5.31866 5.70046 5.74167 6.825C4.83974 7.75375 4.33465 8.99704 4.33333 10.2917C4.33333 15.275 7.25833 16.4667 10.2917 16.7917C9.64167 17.4417 9.64167 18.0917 9.75 18.9583V22.75M9.75 20.5833C5.09167 22.1 5.09167 17.875 3.25 17.3333L9.75 20.5833Z" stroke="#AAAAAA" stroke-linecap="round" stroke-linejoin="round"/>
</g>
<defs>
<clipPath id="clip0_31_424">
<rect width="26" height="26" fill="white"/>
</clipPath>
</defs>
</svg>
