<svg width="26" height="26" viewBox="0 0 26 26" fill="none" xmlns="http://www.w3.org/2000/svg">
<g clip-path="url(#clip0_31_427)">
<path d="M19.4999 4.33334H6.49992C5.3033 4.33334 4.33325 5.30339 4.33325 6.5V19.5C4.33325 20.6966 5.3033 21.6667 6.49992 21.6667H19.4999C20.6965 21.6667 21.6666 20.6966 21.6666 19.5V6.5C21.6666 5.30339 20.6965 4.33334 19.4999 4.33334Z" stroke="#AAAAAA" stroke-linecap="round" stroke-linejoin="round"/>
<path d="M8.66675 11.9167V17.3333" stroke="#AAAAAA" stroke-linecap="round" stroke-linejoin="round"/>
<path d="M8.66675 8.66666V8.6775" stroke="#AAAAAA" stroke-linecap="round" stroke-linejoin="round"/>
<path d="M13 17.3333V11.9167" stroke="#AAAAAA" stroke-linecap="round" stroke-linejoin="round"/>
<path d="M17.3333 17.3333V14.0833C17.3333 13.5087 17.1051 12.9576 16.6987 12.5513C16.2924 12.1449 15.7413 11.9167 15.1667 11.9167C14.592 11.9167 14.0409 12.1449 13.6346 12.5513C13.2283 12.9576 13 13.5087 13 14.0833" stroke="#AAAAAA" stroke-linecap="round" stroke-linejoin="round"/>
</g>
<defs>
<clipPath id="clip0_31_427">
<rect width="26" height="26" fill="white"/>
</clipPath>
</defs>
</svg>
